<?xml version="1.0" encoding="UTF-8" standalone="no" ?>
<!DOCTYPE svg PUBLIC "-//W3C//DTD SVG 1.1//EN" "http://www.w3.org/Graphics/SVG/1.1/DTD/svg11.dtd">
<svg xmlns="http://www.w3.org/2000/svg" xmlns:xlink="http://www.w3.org/1999/xlink" version="1.1" width="350" height="350" viewBox="0 0 350 350" xml:space="preserve">
<desc>Created with Fabric.js 1.7.22</desc>
<defs>
</defs>
<g id="icon" style="stroke: none; stroke-width: 1; stroke-dasharray: none; stroke-linecap: butt; stroke-linejoin: miter; stroke-miterlimit: 10; fill: none; fill-rule: nonzero; opacity: 1;" transform="translate(-1.9444444444444287 -1.9444444444444287) scale(3.89 3.89)" >
	<path d="M 76.887 60.444 H 66.87 c -0.828 0 -1.5 -0.672 -1.5 -1.5 s 0.672 -1.5 1.5 -1.5 h 10.017 C 82.463 57.444 87 52.907 87 47.331 c 0 -5.335 -4.179 -9.764 -9.514 -10.081 l -1.581 -0.094 l 0.18 -1.573 c 0.1 -0.872 0.147 -1.652 0.147 -2.385 c 0 -11.438 -9.305 -20.742 -20.742 -20.742 c -7.165 0 -13.729 3.641 -17.559 9.741 l -0.745 1.187 l -1.235 -0.663 c -2.294 -1.231 -4.889 -1.882 -7.502 -1.882 c -8.491 0 -15.457 6.65 -15.858 15.14 l -0.057 1.196 l -1.179 0.21 C 6.514 38.244 3 42.428 3 47.331 c 0 5.576 4.537 10.113 10.113 10.113 h 7.303 c 0.829 0 1.5 0.672 1.5 1.5 s -0.671 1.5 -1.5 1.5 h -7.303 C 5.883 60.444 0 54.562 0 47.331 c 0 -5.966 4.007 -11.109 9.683 -12.645 c 1.025 -9.537 9.057 -16.849 18.766 -16.849 c 2.649 0 5.282 0.563 7.693 1.637 c 4.46 -6.299 11.596 -10.019 19.349 -10.019 c 13.092 0 23.742 10.651 23.742 23.742 c 0 0.401 -0.013 0.813 -0.037 1.239 C 85.365 35.536 90 40.93 90 47.331 C 90 54.562 84.117 60.444 76.887 60.444 z" style="stroke: none; stroke-width: 1; stroke-dasharray: none; stroke-linecap: butt; stroke-linejoin: miter; stroke-miterlimit: 10; fill: rgb(37,51,75); fill-rule: nonzero; opacity: 1;" transform=" matrix(1 0 0 1 0 0) " stroke-linecap="round" />
	<path d="M 66.928 31.09 c -0.639 0 -1.23 -0.411 -1.432 -1.052 c -1.375 -4.395 -5.396 -7.347 -10.006 -7.347 c -0.828 0 -1.5 -0.671 -1.5 -1.5 s 0.672 -1.5 1.5 -1.5 c 5.928 0 11.1 3.798 12.869 9.451 c 0.247 0.791 -0.193 1.632 -0.983 1.88 C 67.227 31.068 67.076 31.09 66.928 31.09 z" style="stroke: none; stroke-width: 1; stroke-dasharray: none; stroke-linecap: butt; stroke-linejoin: miter; stroke-miterlimit: 10; fill: rgb(37,51,75); fill-rule: nonzero; opacity: 1;" transform=" matrix(1 0 0 1 0 0) " stroke-linecap="round" />
	<path d="M 21.859 37.381 c -0.024 0 -0.048 0 -0.072 -0.001 c -0.828 -0.04 -1.467 -0.742 -1.428 -1.569 c 0.205 -4.33 3.758 -7.721 8.089 -7.721 c 0.829 0 1.5 0.671 1.5 1.5 s -0.671 1.5 -1.5 1.5 c -2.727 0 -4.963 2.136 -5.092 4.862 C 23.319 36.755 22.655 37.381 21.859 37.381 z" style="stroke: none; stroke-width: 1; stroke-dasharray: none; stroke-linecap: butt; stroke-linejoin: miter; stroke-miterlimit: 10; fill: rgb(37,51,75); fill-rule: nonzero; opacity: 1;" transform=" matrix(1 0 0 1 0 0) " stroke-linecap="round" />
	<path d="M 28.482 57.444 c -0.549 0 -1.077 -0.302 -1.341 -0.825 c -0.373 -0.74 -0.075 -1.643 0.666 -2.015 l 33 -16.611 c 0.741 -0.373 1.643 -0.075 2.015 0.666 c 0.372 0.74 0.074 1.642 -0.665 2.014 l -33 16.611 C 28.939 57.393 28.709 57.444 28.482 57.444 z" style="stroke: none; stroke-width: 1; stroke-dasharray: none; stroke-linecap: butt; stroke-linejoin: miter; stroke-miterlimit: 10; fill: rgb(65,98,163); fill-rule: nonzero; opacity: 1;" transform=" matrix(1 0 0 1 0 0) " stroke-linecap="round" />
	<path d="M 60.888 46.935 c -0.208 0 -0.42 -0.043 -0.622 -0.136 c -0.754 -0.344 -1.086 -1.233 -0.741 -1.987 l 2.705 -5.927 l -6.471 -1.229 c -0.813 -0.155 -1.348 -0.939 -1.193 -1.753 c 0.154 -0.813 0.936 -1.352 1.754 -1.194 l 8.35 1.586 c 0.452 0.086 0.84 0.375 1.052 0.784 c 0.212 0.41 0.224 0.893 0.032 1.313 l -3.5 7.667 C 62.001 46.609 61.457 46.935 60.888 46.935 z" style="stroke: none; stroke-width: 1; stroke-dasharray: none; stroke-linecap: butt; stroke-linejoin: miter; stroke-miterlimit: 10; fill: rgb(65,98,163); fill-rule: nonzero; opacity: 1;" transform=" matrix(1 0 0 1 0 0) " stroke-linecap="round" />
	<path d="M 73.338 77.544 H 59.981 V 51.543 c 0 -0.828 -0.672 -1.5 -1.5 -1.5 s -1.5 0.672 -1.5 1.5 v 26.001 h -7 V 57.388 c 0 -0.828 -0.672 -1.5 -1.5 -1.5 s -1.5 0.672 -1.5 1.5 v 20.156 h -7 V 62.022 c 0 -0.828 -0.671 -1.5 -1.5 -1.5 s -1.5 0.672 -1.5 1.5 v 15.521 h -7 V 67.263 c 0 -0.828 -0.671 -1.5 -1.5 -1.5 s -1.5 0.672 -1.5 1.5 v 10.281 H 16.663 c -0.829 0 -1.5 0.672 -1.5 1.5 s 0.671 1.5 1.5 1.5 h 56.675 c 0.828 0 1.5 -0.672 1.5 -1.5 S 74.166 77.544 73.338 77.544 z" style="stroke: none; stroke-width: 1; stroke-dasharray: none; stroke-linecap: butt; stroke-linejoin: miter; stroke-miterlimit: 10; fill: rgb(65,98,163); fill-rule: nonzero; opacity: 1;" transform=" matrix(1 0 0 1 0 0) " stroke-linecap="round" />
</g>
</svg>